<svg width="70" height="21" viewBox="0 0 70 21" fill="none" xmlns="http://www.w3.org/2000/svg"><path d="M6.85 20H0.9V2.5H6.85C8.7 2.5 10.3083 2.85833 11.675 3.575C13.0583 4.29167 14.1333 5.30833 14.9 6.625C15.6667 7.925 16.05 9.46667 16.05 11.25C16.05 13.0167 15.6667 14.5583 14.9 15.875C14.1333 17.1917 13.0583 18.2083 11.675 18.925C10.3083 19.6417 8.7 20 6.85 20ZM6.75 5.775H4.6V16.725H6.75C7.78333 16.725 8.71667 16.5417 9.55 16.175C10.4 15.7917 11.075 15.2 11.575 14.4C12.0917 13.5833 12.35 12.5333 12.35 11.25C12.35 9.96667 12.0917 8.925 11.575 8.125C11.075 7.30833 10.4 6.71667 9.55 6.35C8.71667 5.96667 7.78333 5.775 6.75 5.775ZM18.8199 2.5H24.4949C26.5783 2.5 28.1866 3 29.3199 4C30.4533 5 31.0199 6.36667 31.0199 8.1C31.0199 9.81667 30.4533 11.175 29.3199 12.175C28.1866 13.1583 26.5783 13.65 24.4949 13.65H22.4199V20H18.8199V2.5ZM24.4949 5.55H22.4199V10.6H24.4949C25.4283 10.6 26.1699 10.3917 26.7199 9.975C27.2699 9.54167 27.5449 8.91667 27.5449 8.1C27.5449 7.26667 27.2699 6.63333 26.7199 6.2C26.1699 5.76667 25.4283 5.55 24.4949 5.55Z" fill="#2469E9"></path><path d="M36.7102 11.25C36.7102 12.4 36.9685 13.4 37.4852 14.25C38.0018 15.1 38.6852 15.7583 39.5352 16.225C40.3852 16.675 41.3102 16.9 42.3102 16.9C43.5435 16.9 44.5935 16.6667 45.4602 16.2C46.3435 15.7333 47.0768 15.1667 47.6602 14.5V18.55C46.9435 19.1167 46.1685 19.5583 45.3352 19.875C44.5018 20.1917 43.4435 20.35 42.1602 20.35C40.8102 20.35 39.5602 20.1333 38.4102 19.7C37.2768 19.25 36.2935 18.625 35.4602 17.825C34.6268 17.025 33.9768 16.0667 33.5102 14.95C33.0435 13.8333 32.8102 12.6 32.8102 11.25C32.8102 9.9 33.0435 8.66667 33.5102 7.55C33.9768 6.43333 34.6268 5.475 35.4602 4.675C36.2935 3.875 37.2768 3.25833 38.4102 2.825C39.5602 2.375 40.8102 2.15 42.1602 2.15C43.4435 2.15 44.5018 2.30833 45.3352 2.625C46.1685 2.925 46.9435 3.36667 47.6602 3.95V8C47.0768 7.31667 46.3435 6.75 45.4602 6.3C44.5935 5.83333 43.5435 5.6 42.3102 5.6C41.3102 5.6 40.3852 5.83333 39.5352 6.3C38.6852 6.75 38.0018 7.4 37.4852 8.25C36.9685 9.08333 36.7102 10.0833 36.7102 11.25ZM50.893 0.499999H54.143V20H50.893V0.499999ZM56.5633 14.25C56.5633 13.05 56.8383 12 57.3883 11.1C57.9549 10.2 58.7133 9.5 59.6633 9C60.6299 8.5 61.7216 8.25 62.9383 8.25C64.1549 8.25 65.2466 8.5 66.2133 9C67.1799 9.5 67.9383 10.2 68.4883 11.1C69.0549 12 69.3383 13.05 69.3383 14.25C69.3383 15.4333 69.0549 16.4833 68.4883 17.4C67.9383 18.3 67.1799 19 66.2133 19.5C65.2466 20 64.1549 20.25 62.9383 20.25C61.7216 20.25 60.6299 20 59.6633 19.5C58.7133 19 57.9549 18.3 57.3883 17.4C56.8383 16.4833 56.5633 15.4333 56.5633 14.25ZM59.8883 14.25C59.8883 15.2167 60.1799 16 60.7633 16.6C61.3633 17.2 62.0883 17.5 62.9383 17.5C63.7883 17.5 64.5049 17.2 65.0883 16.6C65.6883 16 65.9883 15.2167 65.9883 14.25C65.9883 13.2667 65.6883 12.4833 65.0883 11.9C64.5049 11.3 63.7883 11 62.9383 11C62.0883 11 61.3633 11.3 60.7633 11.9C60.1799 12.4833 59.8883 13.2667 59.8883 14.25Z" fill="#1A1A1A"></path></svg>