<svg width="678" height="210" viewBox="0 0 678 210" fill="none" xmlns="http://www.w3.org/2000/svg">
<path fill-rule="evenodd" clip-rule="evenodd" d="M481.417 140.094C485.174 141.599 490.268 142.351 496.698 142.351C502.695 142.351 507.897 141.348 512.304 139.342C516.711 137.337 520.107 134.579 522.491 131.069C524.948 127.488 526.176 123.405 526.176 118.821C526.176 113.52 524.587 109.151 521.408 105.713C518.229 102.275 512.918 99.0516 505.476 96.0432C500.635 94.1093 496.915 92.3186 494.314 90.6711C491.713 88.9521 489.942 87.233 489.003 85.5139C488.064 83.7948 487.594 81.9325 487.594 79.9269C487.594 76.7037 488.642 74.2683 490.737 72.6209C492.905 70.9018 495.433 70.0423 498.324 70.0423C501.141 70.0423 503.381 70.866 505.043 72.5135C506.705 74.1609 507.897 76.1307 508.619 78.4228C509.414 80.7149 509.811 82.8637 509.811 84.8693C514.291 84.8693 517.614 84.0097 519.782 82.2907C522.022 80.5716 523.142 78.4586 523.142 75.9516C523.142 72.4418 521.263 69.5051 517.506 67.1414C513.821 64.706 508.005 63.4883 500.057 63.4883C495 63.4883 490.448 64.3837 486.402 66.1744C482.428 67.9651 479.285 70.4721 476.973 73.6953C474.661 76.9186 473.505 80.7149 473.505 85.0842C473.505 88.5939 474.119 91.7456 475.348 94.539C476.648 97.2609 478.78 99.7679 481.742 102.06C484.704 104.28 488.714 106.429 493.772 108.506C499.841 110.942 504.356 113.27 507.319 115.49C510.353 117.711 511.871 120.647 511.871 124.3C511.871 127.595 510.678 130.353 508.294 132.573C505.982 134.794 502.695 135.904 498.432 135.904C494.097 135.904 490.52 134.328 487.703 131.177C484.957 128.025 483.584 123.405 483.584 117.317C481.489 117.317 479.502 117.639 477.624 118.284C475.745 118.928 474.228 120.003 473.072 121.507C471.916 122.94 471.338 124.873 471.338 127.309C471.338 129.601 472.096 131.929 473.614 134.293C475.131 136.585 477.732 138.519 481.417 140.094ZM147 141.276V135.582H151.552C153.141 135.582 154.442 135.188 155.453 134.4C156.537 133.612 157.079 131.678 157.079 128.598V76.8111C157.079 73.946 156.537 72.1553 155.453 71.439C154.37 70.6511 153.069 70.2572 151.552 70.2572H147V64.5628H182.764C194.758 64.5628 204.15 67.6786 210.942 73.9102C217.734 80.1418 221.129 89.346 221.129 101.523C221.129 109.33 219.684 116.242 216.794 122.259C213.904 128.204 209.605 132.86 203.898 136.226C198.262 139.593 191.217 141.276 182.764 141.276H147ZM180.271 134.615C187.713 134.615 193.313 131.678 197.07 125.805C200.899 119.86 202.814 111.766 202.814 101.523C202.814 91.28 200.899 83.6516 197.07 78.6376C193.313 73.6237 187.749 71.1167 180.38 71.1167H174.202V134.615H180.271ZM242.081 141.276V135.582H247.175C248.909 135.582 250.39 135.26 251.619 134.615C252.847 133.97 253.461 132.108 253.461 129.028V114.093L233.411 75.9516C232.328 73.8744 231.28 72.406 230.268 71.5465C229.329 70.6869 227.812 70.2572 225.717 70.2572H224.308V64.5628H260.614V70.2572H258.771C256.604 70.2572 254.978 70.7228 253.894 71.6539C252.811 72.5135 252.269 73.6595 252.269 75.0921C252.269 76.0232 252.413 77.026 252.702 78.1004C253.064 79.1032 253.461 80.0702 253.894 81.0014L261.914 96.7953C263.07 99.0158 264.01 101.021 264.732 102.812C265.455 104.603 266.105 106.322 266.683 107.969C267.478 106.107 268.345 104.066 269.284 101.845C270.295 99.6246 271.379 97.2967 272.535 94.8614L278.821 81.9683C279.616 80.3925 280.122 79.0674 280.338 77.993C280.555 76.9186 280.663 76.0949 280.663 75.5218C280.663 72.0121 278.279 70.2572 273.511 70.2572H271.018V64.5628H299.413V70.2572H297.353C295.547 70.2572 294.138 70.8302 293.127 71.9762C292.115 73.0507 290.779 75.2711 289.117 78.6376L270.693 114.201V128.92C270.693 132 271.271 133.899 272.427 134.615C273.655 135.26 275.1 135.582 276.762 135.582H282.072V141.276H242.081ZM303.028 135.582V141.276H331.314V135.582H326.762C325.245 135.582 323.944 135.188 322.861 134.4C321.777 133.612 321.235 131.678 321.235 128.598V82.0758L363.502 141.276H373.472V77.2409C373.472 74.1609 374.014 72.2269 375.098 71.439C376.182 70.6511 377.482 70.2572 379 70.2572H383.551V64.5628H355.265V70.2572H359.817C361.262 70.2572 362.526 70.6511 363.61 71.439C364.766 72.1553 365.344 73.946 365.344 76.8111V118.176L327.087 64.5628H303.028V70.2572H307.58C309.025 70.2572 310.289 70.6511 311.373 71.439C312.529 72.1553 313.107 73.946 313.107 76.8111V128.598C313.107 131.678 312.565 133.612 311.481 134.4C310.397 135.188 309.097 135.582 307.58 135.582H303.028ZM386.378 141.276V135.582H387.679C389.63 135.582 391.255 135.08 392.556 134.078C393.929 133.075 395.193 130.962 396.349 127.739L419.867 64.5628H434.714L457.365 127.846C458.449 130.854 459.641 132.896 460.941 133.97C462.314 135.045 463.867 135.582 465.601 135.582H467.552V141.276H431.788V135.582H436.015C437.099 135.582 438.146 135.26 439.158 134.615C440.169 133.97 440.675 132.896 440.675 131.392C440.675 130.532 440.567 129.708 440.35 128.92C440.133 128.061 439.916 127.345 439.7 126.772L435.906 116.027H409.571L406.428 125.267C406.139 126.127 405.85 127.166 405.561 128.383C405.272 129.529 405.128 130.532 405.128 131.392C405.128 132.753 405.633 133.791 406.645 134.507C407.656 135.224 408.776 135.582 410.005 135.582H414.556V141.276H386.378ZM411.847 109.473H433.739L427.995 91.853C427.272 89.4176 426.442 86.6958 425.502 83.6874C424.635 80.679 423.913 77.9214 423.335 75.4144C422.685 77.7065 421.89 80.3209 420.95 83.2576C420.011 86.1228 419.108 88.8088 418.241 91.3158L411.847 109.473ZM546.703 141.276V135.582H551.255C552.845 135.582 554.145 135.188 555.157 134.4C556.24 133.612 556.782 131.678 556.782 128.598V71.1167H548.112C544.861 71.1167 542.621 71.7972 541.393 73.1581C540.165 74.519 539.406 76.3814 539.117 78.7451L538.358 85.4065H531.097L531.639 64.5628H599.157L599.699 85.4065H592.438L591.679 78.7451C591.39 76.3814 590.632 74.519 589.404 73.1581C588.175 71.7972 585.935 71.1167 582.684 71.1167H574.014V128.598C574.014 131.678 574.52 133.612 575.531 134.4C576.615 135.188 577.952 135.582 579.541 135.582H584.093V141.276H546.703ZM619.133 135.582V141.276H659.124V135.582H653.814C652.152 135.582 650.707 135.26 649.479 134.615C648.323 133.899 647.745 132 647.745 128.92V114.201L666.169 78.6376C667.83 75.2711 669.167 73.0507 670.179 71.9762C671.19 70.8302 672.599 70.2572 674.405 70.2572H676.464V64.5628H648.07V70.2572H650.562C655.331 70.2572 657.715 72.0121 657.715 75.5218C657.715 76.0949 657.607 76.9186 657.39 77.993C657.173 79.0674 656.668 80.3925 655.873 81.9683L649.587 94.8614C648.431 97.2967 647.347 99.6246 646.336 101.845C645.396 104.066 644.529 106.107 643.735 107.969C643.157 106.322 642.506 104.603 641.784 102.812C641.061 101.021 640.122 99.0158 638.966 96.7953L630.946 81.0014C630.513 80.0702 630.115 79.1032 629.754 78.1004C629.465 77.026 629.321 76.0232 629.321 75.0921C629.321 73.6595 629.863 72.5135 630.946 71.6539C632.03 70.7228 633.656 70.2572 635.823 70.2572H637.666V64.5628H601.36V70.2572H602.769C604.864 70.2572 606.381 70.6869 607.32 71.5465C608.332 72.406 609.379 73.8744 610.463 75.9516L630.513 114.093V129.028C630.513 132.108 629.899 133.97 628.67 134.615C627.442 135.26 625.961 135.582 624.227 135.582H619.133Z" fill="#FEBD5D"/>
<path d="M242.081 135.582V141.276H282.072V135.582H276.762C275.1 135.582 273.655 135.26 272.427 134.615C271.271 133.899 270.693 132 270.693 128.92V114.201L289.117 78.6376C290.779 75.2711 292.115 73.0507 293.127 71.9762C294.138 70.8302 295.547 70.2572 297.353 70.2572H299.413V64.5628H271.018V70.2572H273.511C278.279 70.2572 280.663 72.0121 280.663 75.5218C280.663 76.0949 280.555 76.9186 280.338 77.993C280.122 79.0674 279.616 80.3925 278.821 81.9683L272.535 94.8614C271.379 97.2967 270.295 99.6246 269.284 101.845C268.345 104.066 267.478 106.107 266.683 107.969C266.105 106.322 265.455 104.603 264.732 102.812C264.01 101.021 263.07 99.0158 261.914 96.7953L253.894 81.0014C253.461 80.0702 253.064 79.1032 252.702 78.1004C252.413 77.026 252.269 76.0232 252.269 75.0921C252.269 73.6595 252.811 72.5135 253.894 71.6539C254.978 70.7228 256.604 70.2572 258.771 70.2572H260.614V64.5628H224.308V70.2572H225.717C227.812 70.2572 229.329 70.6869 230.268 71.5465C231.28 72.406 232.328 73.8744 233.411 75.9516L253.461 114.093V129.028C253.461 132.108 252.847 133.97 251.619 134.615C250.39 135.26 248.909 135.582 247.175 135.582H242.081Z" fill="#FEBD5D"/>
<path fill-rule="evenodd" clip-rule="evenodd" d="M147 135.582V141.276H182.764C191.217 141.276 198.262 139.593 203.898 136.226C209.605 132.86 213.904 128.204 216.794 122.259C219.684 116.242 221.129 109.33 221.129 101.523C221.129 89.346 217.734 80.1418 210.942 73.9102C204.15 67.6786 194.758 64.5628 182.764 64.5628H147V70.2572H151.552C153.069 70.2572 154.37 70.6511 155.453 71.439C156.537 72.1553 157.079 73.946 157.079 76.8111V128.598C157.079 131.678 156.537 133.612 155.453 134.4C154.442 135.188 153.141 135.582 151.552 135.582H147ZM180.271 134.615C187.713 134.615 193.313 131.678 197.07 125.805C200.899 119.86 202.814 111.766 202.814 101.523C202.814 91.28 200.899 83.6516 197.07 78.6376C193.313 73.6237 187.749 71.1167 180.38 71.1167H174.202V134.615H180.271Z" fill="#FEBD5D"/>
<path d="M303.028 141.276V135.582H307.58C309.097 135.582 310.397 135.188 311.481 134.4C312.565 133.612 313.107 131.678 313.107 128.598V76.8111C313.107 73.946 312.529 72.1553 311.373 71.439C310.289 70.6511 309.025 70.2572 307.58 70.2572H303.028V64.5628H327.087L365.344 118.176V76.8111C365.344 73.946 364.766 72.1553 363.61 71.439C362.526 70.6511 361.262 70.2572 359.817 70.2572H355.265V64.5628H383.551V70.2572H379C377.482 70.2572 376.182 70.6511 375.098 71.439C374.014 72.2269 373.472 74.1609 373.472 77.2409V141.276H363.502L321.235 82.0758V128.598C321.235 131.678 321.777 133.612 322.861 134.4C323.944 135.188 325.245 135.582 326.762 135.582H331.314V141.276H303.028Z" fill="#FEBD5D"/>
<path fill-rule="evenodd" clip-rule="evenodd" d="M386.378 135.582V141.276H414.556V135.582H410.005C408.776 135.582 407.656 135.224 406.645 134.507C405.633 133.791 405.128 132.753 405.128 131.392C405.128 130.532 405.272 129.529 405.561 128.383C405.85 127.166 406.139 126.127 406.428 125.267L409.571 116.027H435.906L439.7 126.772C439.916 127.345 440.133 128.061 440.35 128.92C440.567 129.708 440.675 130.532 440.675 131.392C440.675 132.896 440.169 133.97 439.158 134.615C438.146 135.26 437.099 135.582 436.015 135.582H431.788V141.276H467.552V135.582H465.601C463.867 135.582 462.314 135.045 460.941 133.97C459.641 132.896 458.449 130.854 457.365 127.846L434.714 64.5628H419.867L396.349 127.739C395.193 130.962 393.929 133.075 392.556 134.078C391.255 135.08 389.63 135.582 387.679 135.582H386.378ZM411.847 109.473H433.739L427.995 91.853C427.272 89.4176 426.442 86.6958 425.502 83.6874C424.635 80.679 423.913 77.9214 423.335 75.4144C422.685 77.7065 421.89 80.3209 420.95 83.2576C420.011 86.1228 419.108 88.8088 418.241 91.3158L411.847 109.473Z" fill="#FEBD5D"/>
<path d="M496.698 142.351C490.268 142.351 485.174 141.599 481.417 140.094C477.732 138.519 475.131 136.585 473.614 134.293C472.096 131.929 471.338 129.601 471.338 127.309C471.338 124.873 471.916 122.94 473.072 121.507C474.228 120.003 475.745 118.928 477.624 118.284C479.502 117.639 481.489 117.317 483.584 117.317C483.584 123.405 484.957 128.025 487.703 131.177C490.52 134.328 494.097 135.904 498.432 135.904C502.695 135.904 505.982 134.794 508.294 132.573C510.678 130.353 511.871 127.595 511.871 124.3C511.871 120.647 510.353 117.711 507.319 115.49C504.356 113.27 499.841 110.942 493.772 108.506C488.714 106.429 484.704 104.28 481.742 102.06C478.78 99.7679 476.648 97.2609 475.348 94.539C474.119 91.7456 473.505 88.5939 473.505 85.0842C473.505 80.7149 474.661 76.9186 476.973 73.6953C479.285 70.4721 482.428 67.9651 486.402 66.1744C490.448 64.3837 495 63.4883 500.057 63.4883C508.005 63.4883 513.821 64.706 517.506 67.1414C521.263 69.5051 523.142 72.4418 523.142 75.9516C523.142 78.4586 522.022 80.5716 519.782 82.2907C517.614 84.0097 514.291 84.8693 509.811 84.8693C509.811 82.8637 509.414 80.7149 508.619 78.4228C507.897 76.1307 506.705 74.1609 505.043 72.5135C503.381 70.866 501.141 70.0423 498.324 70.0423C495.433 70.0423 492.905 70.9018 490.737 72.6209C488.642 74.2683 487.594 76.7037 487.594 79.9269C487.594 81.9325 488.064 83.7948 489.003 85.5139C489.942 87.233 491.713 88.9521 494.314 90.6711C496.915 92.3186 500.635 94.1093 505.476 96.0432C512.918 99.0516 518.229 102.275 521.408 105.713C524.587 109.151 526.176 113.52 526.176 118.821C526.176 123.405 524.948 127.488 522.491 131.069C520.107 134.579 516.711 137.337 512.304 139.342C507.897 141.348 502.695 142.351 496.698 142.351Z" fill="#FEBD5D"/>
<path d="M546.703 135.582V141.276H584.093V135.582H579.541C577.952 135.582 576.615 135.188 575.531 134.4C574.52 133.612 574.014 131.678 574.014 128.598V71.1167H582.684C585.935 71.1167 588.175 71.7972 589.404 73.1581C590.632 74.519 591.39 76.3814 591.679 78.7451L592.438 85.4065H599.699L599.157 64.5628H531.639L531.097 85.4065H538.358L539.117 78.7451C539.406 76.3814 540.165 74.519 541.393 73.1581C542.621 71.7972 544.861 71.1167 548.112 71.1167H556.782V128.598C556.782 131.678 556.24 133.612 555.157 134.4C554.145 135.188 552.845 135.582 551.255 135.582H546.703Z" fill="#FEBD5D"/>
<path d="M619.133 141.276V135.582H624.227C625.961 135.582 627.442 135.26 628.67 134.615C629.899 133.97 630.513 132.108 630.513 129.028V114.093L610.463 75.9516C609.379 73.8744 608.332 72.406 607.32 71.5465C606.381 70.6869 604.864 70.2572 602.769 70.2572H601.36V64.5628H637.666V70.2572H635.823C633.656 70.2572 632.03 70.7228 630.946 71.6539C629.863 72.5135 629.321 73.6595 629.321 75.0921C629.321 76.0232 629.465 77.026 629.754 78.1004C630.115 79.1032 630.513 80.0702 630.946 81.0014L638.966 96.7953C640.122 99.0158 641.061 101.021 641.784 102.812C642.506 104.603 643.157 106.322 643.735 107.969C644.529 106.107 645.396 104.066 646.336 101.845C647.347 99.6246 648.431 97.2967 649.587 94.8614L655.873 81.9683C656.668 80.3925 657.173 79.0674 657.39 77.993C657.607 76.9186 657.715 76.0949 657.715 75.5218C657.715 72.0121 655.331 70.2572 650.562 70.2572H648.07V64.5628H676.464V70.2572H674.405C672.599 70.2572 671.19 70.8302 670.179 71.9762C669.167 73.0507 667.83 75.2711 666.169 78.6376L647.745 114.201V128.92C647.745 132 648.323 133.899 649.479 134.615C650.707 135.26 652.152 135.582 653.814 135.582H659.124V141.276H619.133Z" fill="#FEBD5D"/>
<path fill-rule="evenodd" clip-rule="evenodd" d="M88.7639 193.251C87.0082 191.053 85.6049 189.044 84.3223 187.208C83.2125 185.619 82.193 184.16 81.1137 182.819C88.6876 174.851 99.8462 156.155 78.3147 127.113C78.3147 127.113 67.2529 139.749 62.8509 154.103C59.9855 148.04 57.7143 141.918 56.0239 135.746C65.7796 132.456 87.0663 120.874 79.3551 83.4871C79.3551 83.4871 62.7061 90.9172 52.577 102.802C53.0348 95.2983 54.3201 87.7699 56.4358 80.2769C56.8165 78.9278 57.2317 77.5796 57.6676 76.2247C67.0341 77.757 91.4583 77.9922 102.08 42.1592C102.08 42.1592 85.6263 41.3489 71.8237 46.434C78.9062 35.3168 85.7087 28.0892 87.6112 26.1543C96.612 27.4426 113.556 25.9704 123.479 0.452779C123.479 0.452779 119.939 -4.4599e-05 114.913 3.29472e-09C103.628 0.000100153 84.8472 2.28347 81.8125 17.1033C80.46 18.4707 76.5787 22.5035 71.8588 28.4738C70.655 21.9541 67.1655 14.393 59.8351 5.93094C59.8351 5.93094 35.7404 38.1905 56.1027 52.843C52.8808 59.1124 50.1862 65.499 48.0407 71.9287C44.5399 65.4594 38.1638 58.8223 27.0434 53.1819C25.1214 52.2071 23.0485 51.2566 20.8242 50.3461C20.8242 50.3461 15.1933 87.2181 35.2045 97.368C37.2766 98.419 39.6292 99.1847 42.2934 99.5893C41.8069 105.436 41.7836 111.275 42.2173 117.068C42.2173 117.068 42.224 117.088 42.2171 117.101C39.4952 114.748 36.2511 112.549 32.4006 110.596C25.4931 107.093 16.6227 104.387 5.25 103.095C5.25 103.095 10.5607 140.597 31.8237 151.382C37.1926 154.105 43.5728 155.12 51.1479 153.405C56.2844 165.574 63.5582 177.485 72.9384 189.116L83.4448 201.092L91.4583 210L96.1532 203.018C96.1532 203.018 92.0387 197.35 88.7639 193.251ZM77.6481 146.388C80.0922 152.33 80.8916 157.873 80.023 162.964C79.3407 166.976 77.6273 170.708 74.9245 174.082C73.5146 172.579 72.3652 170.68 71.8546 168.275C70.486 161.739 73.7306 153.402 77.6481 146.388ZM58.7582 39.6815C57.9281 36.3858 58.5701 31.7748 60.5601 26.4475C61.6454 29.5545 62.073 32.5286 61.818 35.3667C61.5855 38.0146 60.7718 40.3011 59.8 42.163C59.2337 41.2804 58.9413 40.4368 58.7582 39.6815ZM66.4959 61.5927C69.8678 57.7881 76.7273 54.8802 85.8625 53.3953C82.8335 58.1951 79.2132 61.6984 75.0196 63.8707C71.6945 65.5952 67.9938 66.4845 64.0224 66.5236C64.503 64.1609 65.5614 62.6443 66.4959 61.5927ZM94.1655 15.3978C96.2641 13.3864 99.9619 11.8756 104.825 11.015C103.028 12.7182 101.096 14.0014 99.0297 14.8814C97.0809 15.7033 95.166 16.0983 93.4075 16.2288C93.6603 15.9129 93.9163 15.6404 94.1655 15.3978ZM39.9569 88.3384C37.5495 87.1173 35.6331 84.9635 34.099 81.7378C32.5613 78.5021 31.5108 74.3903 30.9673 69.4966C30.9002 68.8339 30.8401 68.1748 30.7866 67.519C36.7451 72.1837 40.2298 77.5805 41.1694 83.6476C41.4605 85.5472 41.4713 87.3379 41.3566 88.9222C40.864 88.756 40.3947 88.5604 39.9569 88.3384ZM70.1769 100.841C70.2767 100.767 70.3772 100.692 70.4877 100.613C70.1755 107.001 68.5253 112.358 65.5348 116.624C63.1892 119.977 60.0113 122.657 56.0905 124.607C55.1468 121.84 55.3927 119.694 55.765 118.114C57.0399 112.793 62.1492 106.66 70.1769 100.841ZM36.5764 142.352C30.3596 139.199 24.8151 131.525 20.5342 120.167C20.0327 118.832 19.5792 117.521 19.1663 116.247C22.2522 117.2 25.0825 118.325 27.647 119.626C36.2506 123.99 41.9184 130.343 44.4901 138.512C45.1003 140.464 45.4743 142.322 45.6884 143.956C42.3325 144.274 39.3121 143.739 36.5764 142.352Z" fill="url(#paint0_linear)"/>
<defs>
<linearGradient id="paint0_linear" x1="64.3643" y1="-9.99545e-06" x2="64.3643" y2="210" gradientUnits="userSpaceOnUse">
<stop stop-color="#FEC776"/>
<stop offset="1" stop-color="#FEB343"/>
</linearGradient>
</defs>
</svg>
