<svg xmlns="http://www.w3.org/2000/svg" width="93" height="69" fill="none"><path d="M1.155 20.15V0h11.922v3.009H4.726v5.615h7.545v2.902H4.726v8.624H1.155zM23.091 6.663V20.15h3.25v-7.791c0-.377.053-.753.16-1.129.108-.394.278-.743.51-1.048.233-.304.547-.546.94-.725.394-.197.878-.296 1.45-.296.967 0 1.656.305 2.068.914.412.591.618 1.352.618 2.284v7.79h3.276v-8.193c0-.77-.09-1.496-.269-2.177a4.815 4.815 0 00-.86-1.773 3.9 3.9 0 00-1.556-1.209c-.627-.304-1.397-.457-2.31-.457-1.074 0-1.951.233-2.631.699-.663.466-1.155.94-1.477 1.424l-.188-1.8h-2.98zm21.587 13.809c-1.629 0-2.873-.43-3.732-1.29-.86-.877-1.29-2.104-1.29-3.68V9.376h-2.12V6.663h2.201l.188-3.385h2.98v3.385h5.318v2.713h-5.317v5.911c0 .77.143 1.37.43 1.8.286.43.778.645 1.476.645.358 0 .645-.054.86-.161a1.282 1.282 0 00.751-1.021h2.256v1.8c-.25.501-.69.985-1.316 1.45-.608.448-1.503.672-2.685.672z" fill="#2B2D33"/><path fill-rule="evenodd" clip-rule="evenodd" d="M54.135 19.935c.895.358 1.934.537 3.115.537 1.11 0 2.032-.125 2.766-.376.752-.25 1.352-.52 1.8-.806.447-.304.76-.582.939-.833l.295-.376v-1.773h-2.363l-.16.242c-.09.143-.26.304-.511.483-.233.18-.573.35-1.02.51-.448.144-1.02.216-1.719.216-1.2 0-2.121-.34-2.766-1.021-.644-.68-1.011-1.585-1.1-2.714h9.774l.053-.456a6.63 6.63 0 00.08-1.129 7.59 7.59 0 00-.375-2.418 4.763 4.763 0 00-1.128-1.934c-.519-.538-1.181-.958-1.987-1.263-.788-.322-1.736-.484-2.846-.484-1.092 0-2.068.189-2.927.565-.86.376-1.575.886-2.148 1.531a6.455 6.455 0 00-1.316 2.23 8.15 8.15 0 00-.457 2.74c0 1.021.144 1.97.43 2.848.304.86.752 1.603 1.343 2.23.608.61 1.351 1.093 2.228 1.45zm6.015-8.114h-6.632c.179-.824.528-1.495 1.047-2.015.537-.52 1.343-.779 2.417-.779 1.074 0 1.87.278 2.39.833.519.537.778 1.191.778 1.961z" fill="#2B2D33"/><path d="M69.368 19.908c-.86-.376-1.576-.878-2.148-1.505a6.404 6.404 0 01-1.29-2.256 8.615 8.615 0 01-.429-2.74c0-.968.152-1.881.456-2.741a6.522 6.522 0 011.37-2.257 6.37 6.37 0 012.175-1.531c.877-.376 1.853-.564 2.927-.564 1.092 0 1.978.143 2.658.43.698.286 1.244.608 1.638.967.394.34.663.653.806.94l.215.43v1.773h-2.283l-.134-.269c-.072-.179-.215-.376-.43-.59-.215-.234-.528-.44-.94-.619-.393-.179-.904-.268-1.53-.268-.627 0-1.173.116-1.638.349a3.376 3.376 0 00-1.128.94 3.635 3.635 0 00-.671 1.37 6.14 6.14 0 00-.215 1.64c0 1.181.295 2.193.886 3.035.609.824 1.53 1.236 2.766 1.236.662 0 1.19-.09 1.584-.268.412-.18.725-.377.94-.592.215-.233.358-.438.43-.617l.107-.27h2.282v1.774l-.241.43c-.143.286-.412.609-.806.967-.394.34-.94.654-1.638.94-.698.287-1.584.43-2.658.43-1.164 0-2.184-.188-3.061-.564zM83.978 0h-3.25v20.15h3.25v-7.791c0-.377.053-.753.16-1.129.108-.394.278-.743.511-1.048a2.41 2.41 0 01.94-.725c.394-.197.877-.296 1.45-.296.966 0 1.656.305 2.067.914.412.591.618 1.352.618 2.284v7.79H93v-8.193c0-.77-.09-1.496-.269-2.177a4.816 4.816 0 00-.859-1.773 3.9 3.9 0 00-1.557-1.209c-.627-.304-1.397-.457-2.31-.457-1.02 0-1.861.224-2.524.672-.662.43-1.163.869-1.503 1.317V0z" fill="#2B2D33"/><path fill-rule="evenodd" clip-rule="evenodd" d="M1.155 44.138v-20.15H7.76c1.558 0 2.954.269 4.19.806 1.252.52 2.318 1.227 3.195 2.122a9.084 9.084 0 012.014 3.197c.465 1.218.698 2.508.698 3.87 0 1.396-.233 2.713-.698 3.949a9.36 9.36 0 01-2.014 3.224c-.877.913-1.943 1.638-3.196 2.176-1.235.537-2.631.806-4.189.806H1.155zm3.571-3.01H7.68c1.002 0 1.906-.187 2.712-.563a5.941 5.941 0 002.067-1.532 6.748 6.748 0 001.316-2.257 8.469 8.469 0 00.457-2.794c0-.95-.152-1.845-.457-2.686a6.454 6.454 0 00-1.316-2.23 5.665 5.665 0 00-2.067-1.505c-.806-.376-1.71-.564-2.712-.564H4.726v14.132zm19.577 2.795c.895.358 1.934.537 3.115.537 1.11 0 2.032-.125 2.766-.376.752-.25 1.352-.52 1.8-.806.447-.304.76-.582.939-.833l.295-.376v-1.773h-2.363l-.16.242c-.09.143-.26.304-.511.483-.233.18-.573.35-1.02.51-.448.144-1.02.216-1.719.216-1.2 0-2.121-.34-2.766-1.021-.644-.68-1.011-1.585-1.1-2.714h9.774l.053-.457c.054-.304.08-.68.08-1.128a7.59 7.59 0 00-.375-2.418 4.764 4.764 0 00-1.128-1.934c-.52-.538-1.181-.959-1.987-1.263-.788-.322-1.736-.484-2.846-.484-1.092 0-2.068.188-2.927.565-.86.376-1.575.886-2.148 1.531a6.454 6.454 0 00-1.316 2.23 8.15 8.15 0 00-.457 2.74c0 1.021.144 1.97.43 2.848.304.86.752 1.603 1.343 2.23.608.609 1.351 1.093 2.228 1.45zm6.015-8.114h-6.632c.179-.824.528-1.495 1.047-2.015.537-.52 1.343-.779 2.417-.779 1.074 0 1.87.278 2.39.833.519.537.778 1.191.778 1.961z" fill="#2B2D33"/><path d="M41.669 44.46c-1.003 0-1.853-.107-2.551-.322-.698-.233-1.271-.493-1.719-.78-.43-.286-.752-.564-.967-.832-.214-.287-.34-.475-.375-.565v-1.773h2.309c0 .036.063.153.188.35.125.179.322.367.59.564.27.197.61.376 1.021.537.412.161.913.242 1.504.242.877 0 1.486-.134 1.826-.403.358-.269.537-.627.537-1.075 0-.555-.25-.931-.752-1.128-.483-.215-1.083-.394-1.8-.537l-1.557-.296c-1.02-.18-1.88-.564-2.578-1.155-.698-.61-1.047-1.523-1.047-2.74 0-1.147.439-2.132 1.316-2.956.895-.842 2.157-1.263 3.786-1.263 1.486 0 2.614.242 3.384.726.77.483 1.297 1.02 1.584 1.612v1.773h-2.283c0-.036-.053-.134-.16-.296a1.74 1.74 0 00-.457-.537c-.197-.179-.475-.34-.833-.483-.34-.162-.76-.242-1.262-.242-.752 0-1.288.143-1.61.43a1.415 1.415 0 00-.457 1.074c0 .43.179.77.537 1.021.376.233.868.412 1.477.538l1.557.295c.555.107 1.083.25 1.584.43.502.161.94.394 1.316.698.376.287.671.654.886 1.102.233.448.35.985.35 1.612 0 1.236-.457 2.275-1.37 3.116-.913.842-2.238 1.263-3.974 1.263zm32.553-.322V30.65h2.98l.188 1.8c.322-.484.815-.958 1.477-1.424.68-.466 1.557-.699 2.632-.699.913 0 1.682.153 2.309.457a3.9 3.9 0 011.557 1.21c.394.5.68 1.092.86 1.772.178.68.268 1.406.268 2.176v8.195h-3.276v-7.792c0-.93-.206-1.692-.617-2.283-.412-.61-1.101-.914-2.068-.914-.573 0-1.056.099-1.45.296-.394.179-.707.42-.94.725a3.009 3.009 0 00-.51 1.048 4.092 4.092 0 00-.161 1.128v7.792h-3.25zM5.666 67.642c1.235.537 2.65.806 4.242.806 1.343 0 2.489-.161 3.438-.484.948-.34 1.718-.725 2.309-1.155.609-.43 1.056-.85 1.342-1.263.305-.412.484-.707.538-.886v-1.935h-2.74c-.017.072-.116.26-.295.565-.16.286-.43.59-.805.913-.376.322-.869.61-1.477.86-.609.25-1.36.376-2.256.376-.984 0-1.88-.188-2.685-.564a5.663 5.663 0 01-1.987-1.559c-.537-.662-.958-1.45-1.262-2.364a9.828 9.828 0 01-.43-2.955c0-1.075.143-2.06.43-2.955.304-.914.725-1.693 1.262-2.338A5.78 5.78 0 017.304 51.2c.787-.376 1.674-.564 2.658-.564.913 0 1.665.125 2.256.376.608.233 1.092.501 1.45.806.358.304.608.6.752.886.143.287.223.466.241.538h2.74v-1.935c-.037-.143-.189-.412-.457-.806-.25-.394-.663-.797-1.235-1.209-.573-.43-1.334-.806-2.283-1.128-.949-.34-2.121-.51-3.518-.51-1.485 0-2.846.26-4.081.778a9.145 9.145 0 00-3.115 2.15c-.86.913-1.53 2.006-2.014 3.277C.233 55.131 0 56.51 0 57.997c0 1.469.215 2.848.644 4.137.448 1.272 1.083 2.374 1.907 3.305.841.931 1.88 1.666 3.115 2.203z" fill="#2B2D33"/><path fill-rule="evenodd" clip-rule="evenodd" d="M26.514 68.448c-1.092 0-2.077-.188-2.954-.564a6.866 6.866 0 01-2.202-1.505 6.874 6.874 0 01-1.37-2.257 8.384 8.384 0 01-.456-2.767c0-.967.152-1.88.457-2.74a6.574 6.574 0 011.37-2.23 6.341 6.341 0 012.201-1.505c.877-.376 1.862-.564 2.954-.564 1.074 0 2.04.188 2.9.564.877.359 1.611.86 2.202 1.505a6.574 6.574 0 011.37 2.23c.322.86.483 1.773.483 2.74 0 .968-.162 1.89-.484 2.768a6.874 6.874 0 01-1.37 2.256c-.59.627-1.324 1.129-2.201 1.505-.86.376-1.826.564-2.9.564zm0-2.794c1.253 0 2.175-.421 2.766-1.263.608-.842.913-1.854.913-3.036 0-1.146-.305-2.14-.913-2.982-.591-.842-1.513-1.263-2.766-1.263-1.253 0-2.184.421-2.793 1.263-.608.842-.913 1.836-.913 2.982 0 1.182.305 2.194.913 3.036.609.842 1.54 1.263 2.793 1.263z" fill="#2B2D33"/><path d="M36.413 54.639v13.487h3.249v-7.792c0-.376.053-.752.16-1.128.108-.394.278-.743.51-1.048a2.43 2.43 0 01.94-.725c.395-.197.878-.296 1.45-.296.967 0 1.657.305 2.068.914.412.59.618 1.352.618 2.283v7.792h3.276V59.93c0-.77-.09-1.495-.269-2.176a4.815 4.815 0 00-.859-1.773A3.9 3.9 0 0046 54.773c-.627-.305-1.397-.457-2.31-.457-1.074 0-1.95.233-2.631.699-.662.465-1.155.94-1.477 1.424l-.188-1.8h-2.98z" fill="#2B2D33"/><path fill-rule="evenodd" clip-rule="evenodd" d="M60.609 50.752c1.001.417 1.711.498 2.892.498 2.238 0 3.66-.91 4.967-2.307 1.324-1.397 1.987-3.269 1.987-5.615V30.567h-3.008l-.242 1.988a5.18 5.18 0 00-1.88-1.693c-.77-.43-1.664-.645-2.685-.645-.948 0-1.808.188-2.578.565a5.877 5.877 0 00-1.96 1.53 6.58 6.58 0 00-1.235 2.23 8.612 8.612 0 00-.43 2.741c0 .95.144 1.854.43 2.714.286.842.69 1.585 1.208 2.23a6.039 6.039 0 001.96 1.504c.77.358 1.63.537 2.579.537 1.002 0 1.888-.197 2.658-.59a5.213 5.213 0 001.906-1.666v1.37c0 1.45-.674 2.606-1.187 3.466-.513.86-1.534 1.769-2.894 1.769-.631 0-1.663-.13-2.44-.49-.777-.358-1.891-.788-3.12-.788-1.067 0-2.101.252-2.96 1.148-.86.895-1.29 2.122-1.29 3.68v2.387h-2.362v2.714h2.363v10.773h3.276V57.268h4.323v-2.714h-4.323v-2.44c0-.717.134-1.245.403-1.586.268-.358.68-.51 1.235-.51s1.405.316 2.407.734zm2.837-9.278c1.128 0 2.032-.412 2.712-1.235.68-.824 1.02-1.819 1.02-2.983 0-1.146-.34-2.131-1.02-2.955-.68-.824-1.584-1.236-2.712-1.236-1.235 0-2.175.412-2.82 1.236-.626.824-.94 1.809-.94 2.955 0 1.164.314 2.159.94 2.983.645.823 1.585 1.235 2.82 1.235z" fill="#2B2D33"/><path d="M15.982 3.869V.564h3.464V3.87h-3.464zm.108 16.28V6.664h3.249V20.15h-3.25zm34.18 7.708v-3.305h3.464v3.305H50.27zm.108 16.28V30.652h3.249v13.487h-3.25z" fill="#2B2D33"/></svg>