<svg width="996" height="223" viewBox="0 0 996 223" fill="none" xmlns="http://www.w3.org/2000/svg">
<path d="M222.03 101.281C221.391 94.3754 220.131 87.5424 218.266 80.8659C216.254 73.8158 213.567 66.9788 210.243 60.451C208.012 56.0107 205.482 51.7288 202.671 47.6349C200.823 44.9356 198.862 42.3497 196.789 39.8319C192.423 34.5602 187.587 29.7009 182.343 25.3146C179.864 23.2277 177.272 21.2542 174.613 19.3715C170.585 16.6004 166.385 14.0925 162.038 11.8634C149.379 5.30994 135.582 1.28157 121.404 0V222.999C128.268 222.38 135.059 221.112 141.687 219.211V121.673H223.112L222.03 101.281ZM182.343 101.281H141.777V25.065C148.943 27.6232 155.758 31.0834 162.06 35.3633C164.156 36.7923 166.207 38.3121 168.19 39.8999C170.802 42.0338 173.299 44.3054 175.672 46.7049C178.063 49.0872 180.32 51.6013 182.433 54.2357C184.033 56.2319 185.543 58.2961 186.941 60.4056C191.202 66.7469 194.648 73.6066 197.195 80.8206C199.511 87.425 201.069 94.2746 201.837 101.236L182.343 101.281Z" fill="#191919"/>
<path d="M60.4431 11.8634C56.0935 14.1219 51.893 16.6601 47.8677 19.4623C45.2084 21.345 42.6167 23.3184 40.1376 25.4053C34.8878 29.7857 30.0519 34.6455 25.6917 39.9226C23.6183 42.4178 21.6577 45.0263 19.8097 47.703C8.85196 63.5697 2.18788 82.0348 0.473268 101.281C0.157756 104.638 0 108.041 0 111.488C0 114.936 0.157756 118.293 0.473268 121.719C2.1671 140.962 8.83325 159.425 19.8097 175.274C21.6577 177.973 23.6183 180.559 25.6917 183.077C30.0578 188.349 34.8932 193.208 40.1376 197.594C42.6167 199.681 45.2084 201.654 47.8677 203.514C51.8874 206.332 56.0884 208.878 60.4431 211.136C66.9205 214.5 73.7151 217.205 80.726 219.211C87.3565 221.101 94.1464 222.369 101.009 222.999V101.281H40.1602V121.696H80.726V197.912C73.5575 195.351 66.7418 191.883 60.4431 187.591C58.3472 186.184 56.3189 184.665 54.3132 183.054C51.7016 180.92 49.2041 178.649 46.831 176.249C44.4405 173.867 42.1833 171.353 40.07 168.718C38.4699 166.722 36.96 164.658 35.5627 162.548C27.3659 150.366 22.259 136.347 20.6886 121.719C19.9391 114.934 19.9391 108.088 20.6886 101.304C21.4496 94.3435 22.9997 87.4939 25.3086 80.8886C27.8555 73.6747 31.301 66.815 35.5627 60.4737C36.9825 58.3414 38.4925 56.2999 40.07 54.3038C42.1775 51.6644 44.435 49.1499 46.831 46.7729C49.1983 44.3673 51.6961 42.0955 54.3132 39.968C56.3189 38.3574 58.3472 36.8377 60.4431 35.4313C66.7475 31.1548 73.5622 27.6948 80.726 25.1331C87.2835 22.787 94.0905 21.2188 101.009 20.4603V0C86.8545 1.29018 73.0806 5.31833 60.4431 11.8634Z" fill="#191919"/>
<path d="M362.434 36.9056V33.4162H386.865C386.865 41.0928 384.888 47.4667 380.933 52.5263C375.81 59.0398 368.511 62.2965 359.032 62.2965C350.419 62.2965 343.248 59.476 337.52 53.8406C331.785 48.1995 328.924 41.0405 328.924 32.3694C328.924 23.8205 331.844 16.6789 337.694 10.9448C343.539 5.2222 350.733 2.35509 359.282 2.35509C365.975 2.35509 372.053 4.45452 377.519 8.63594C380.195 10.7296 382.521 13.1663 384.498 15.9636L381.451 18.4062C380.049 16.0218 378.188 13.87 375.868 11.9508C370.983 7.87992 365.429 5.83863 359.2 5.83863C351.75 5.83863 345.516 8.4266 340.48 13.6025C335.449 18.7842 332.931 25.0941 332.931 32.5381C332.931 39.8657 335.403 46.0768 340.346 51.1655C345.283 56.2599 351.483 58.8014 358.927 58.8014C363.521 58.8014 367.61 57.8243 371.186 55.8819C374.763 53.9279 377.426 51.619 379.171 48.9381C381.497 45.3324 382.777 41.3196 383.009 36.8998H362.41L362.434 36.9056Z" fill="#191919"/>
<path d="M438.172 6.63009V30.3636H443.754C447.884 30.3636 451.123 29.3109 453.484 27.2231C455.839 25.1295 457.02 22.2217 457.02 18.4997C457.02 13.6146 455.304 10.2358 451.873 8.37477C449.838 7.21165 446.872 6.63009 442.975 6.63009H438.177H438.172ZM463.126 61.3375H458.77L439.916 33.8471H438.172V61.3375H434.333V3.1349H442.708C448 3.1349 452.1 4.12354 455.008 6.10085C459.02 8.89815 461.033 13.0505 461.033 18.5811C461.033 21.7739 460.248 24.6468 458.677 27.1708C457.113 29.7064 454.635 31.5499 451.262 32.713C449.053 33.4691 446.668 33.8471 444.103 33.8471L463.126 61.3375Z" fill="#191919"/>
<path d="M518.449 51.1713C523.451 56.2658 529.674 58.8072 537.123 58.8072C544.561 58.8072 550.79 56.2658 555.791 51.1713C560.787 46.0826 563.299 39.8134 563.299 32.3694C563.299 24.8615 560.793 18.569 555.791 13.4745C550.79 8.38006 544.561 5.83863 537.123 5.83863C529.674 5.83863 523.445 8.38006 518.449 13.4745C513.448 18.569 510.941 24.8615 510.941 32.3694C510.941 39.8134 513.442 46.0826 518.449 51.1713ZM515.652 11.0785C521.468 5.2629 528.621 2.35509 537.123 2.35509C545.614 2.35509 552.773 5.2629 558.589 11.0785C564.404 16.8941 567.312 23.9949 567.312 32.3694C567.312 40.7439 564.404 47.8273 558.589 53.6138C552.773 59.4062 545.614 62.2965 537.123 62.2965C528.621 62.2965 521.468 59.4062 515.652 53.6138C509.837 47.8273 506.929 40.7439 506.929 32.3694C506.929 23.9891 509.837 16.8941 515.652 11.0785Z" fill="#191919"/>
<path d="M602.278 3.13462H606.46L622.522 52.5265L643.546 0L663.266 52.5265L681.504 3.13462H685.691L663.266 63.518L643.546 10.6425L621.906 63.518L602.278 3.13462Z" fill="#191919"/>
<path d="M757.065 6.63009H741.973V61.3375H738.135V6.63009H723.044V3.1349H757.065V6.63009Z" fill="#191919"/>
<path d="M804.885 3.1349V27.8337H840.134V3.1349H843.972V61.3375H840.134V31.3231H804.885V61.3375H801.041V3.1349H804.885Z" fill="#191919"/>
<path d="M340.27 126.936V163.243H349.616C356.356 163.243 361.649 161.614 365.475 158.34C369.302 155.072 371.221 150.53 371.221 144.703C371.221 132.856 363.713 126.93 348.697 126.93H340.27V126.936ZM328.93 116.212H347.47C359.113 116.212 367.691 118.614 373.21 123.412C379.438 128.727 382.556 136.026 382.556 145.319C382.556 153.292 379.875 160.056 374.507 165.621C369.145 171.187 361.055 173.972 350.227 173.972H340.265V218.398H328.924V116.212H328.93Z" fill="#191919"/>
<path d="M544.802 137.509C536.736 129.338 526.925 125.25 515.387 125.25C503.837 125.25 494.038 129.338 485.978 137.509C477.906 145.68 473.87 155.642 473.87 167.384C473.87 179.131 477.906 189.087 485.978 197.258C494.038 205.429 503.843 209.512 515.387 209.512C526.931 209.512 536.736 205.429 544.802 197.258C552.869 189.087 556.905 179.125 556.905 167.384C556.905 155.642 552.863 145.68 544.802 137.509ZM553.148 205.074C542.883 215.188 530.298 220.242 515.381 220.242C500.47 220.242 487.879 215.188 477.615 205.074C467.35 194.961 462.215 182.399 462.215 167.384C462.215 152.269 467.379 139.684 477.69 129.617C488.007 119.556 500.569 114.526 515.381 114.526C530.188 114.526 542.75 119.556 553.072 129.617C563.389 139.678 568.542 152.269 568.542 167.384C568.542 182.399 563.412 194.961 553.148 205.074Z" fill="#191919"/>
<path d="M652.45 116.212H663.79V218.398H652.45V116.212Z" fill="#191919"/>
<path d="M770.415 218.4H759.074V111.922L838.742 195.417V116.214H850.089V223L770.415 139.5V218.4Z" fill="#191919"/>
<path d="M995.324 126.936H970.503V218.398H959.168V126.936H934.353V116.212H995.324V126.936Z" fill="#191919"/>
</svg>
