<svg style="width: 240px;" xmlns="http://www.w3.org/2000/svg" xmlns:xlink="http://www.w3.org/1999/xlink" viewBox="0 0 197.97 39.06">
        <defs>
            <style>
                .cls-1{fill:#5d239a;}
                .cls-2{fill:url(#Безымянный_градиент_3);}
                .cls-3{fill:#6637b1;}
            </style>
            <linearGradient id="Безымянный_градиент_3" x1="10.08" y1="39.06" x2="10.08" y2="0.22" gradientUnits="userSpaceOnUse">
                <stop offset="0" stop-color="#698aed"></stop>
                <stop offset="1" stop-color="#ec37e6"></stop>
            </linearGradient>
        </defs>
        <!--<title>Ресурс 1</title>-->
        <g id="Слой_2" data-name="Слой 2">
            <g id="Слой_1-2" data-name="Слой 1">
                <path class="cls-1" d="M40.32,6.1h3.49V21.18H40.32Z"></path>
                <path class="cls-1" d="M61.22,6.1V21.18H58.35L50.83,12v9.16H47.38V6.1h2.89l7.5,9.16V6.1Z"></path>
                <path class="cls-1" d="M66.29,21a8.1,8.1,0,0,1-2.68-1.26l1.19-2.63a8.07,8.07,0,0,0,2.31,1.14,8.66,8.66,0,0,0,2.67.43A4.26,4.26,0,0,0,72,18.2,1.34,1.34,0,0,0,72.68,17a1.13,1.13,0,0,0-.42-.89,3.21,3.21,0,0,0-1.08-.57q-.66-.22-1.78-.48a24.58,24.58,0,0,1-2.82-.82,4.59,4.59,0,0,1-1.88-1.32,3.55,3.55,0,0,1-.79-2.41,4.2,4.2,0,0,1,.71-2.38,4.78,4.78,0,0,1,2.14-1.69,8.76,8.76,0,0,1,3.5-.62,11.6,11.6,0,0,1,2.82.35,8.32,8.32,0,0,1,2.41,1L74.42,9.82a8.42,8.42,0,0,0-4.18-1.19,3.92,3.92,0,0,0-2.17.48,1.45,1.45,0,0,0-.7,1.25,1.22,1.22,0,0,0,.81,1.15,12.7,12.7,0,0,0,2.47.74,24.19,24.19,0,0,1,2.82.82,4.66,4.66,0,0,1,1.88,1.29,3.47,3.47,0,0,1,.79,2.39,4.11,4.11,0,0,1-.72,2.36,4.83,4.83,0,0,1-2.17,1.69,8.81,8.81,0,0,1-3.51.62A12.36,12.36,0,0,1,66.29,21Z"></path>
                <path class="cls-1" d="M81.45,8.94H76.62V6.1H89.77V8.94H84.94V21.18H81.45Z"></path>
                <path class="cls-1" d="M100.82,17.95h-7l-1.34,3.23H88.9L95.63,6.1h3.45l6.74,15.08h-3.66Zm-1.1-2.65L97.33,9.52,94.94,15.3Z"></path>
                <path class="cls-1" d="M110.88,8.9v4h7v2.8h-7v5.49h-3.49V6.1h11.4V8.9Z"></path>
                <path class="cls-1" d="M121.16,6.1h3.49V21.18h-3.49Z"></path>
                <path class="cls-1" d="M128.23,6.1h3.49V18.34h7.56v2.84H128.23Z"></path>
                <path class="cls-1" d="M143,8.94h-4.83V6.1h13.14V8.94h-4.83V21.18H143Z"></path>
                <path class="cls-1" d="M164.83,18.38v2.8H153.16V6.1h11.4V8.9h-7.93v3.28h7v2.71h-7v3.49Z"></path>
                <path class="cls-1" d="M177.22,21.18,174.31,17H171.1v4.2h-3.49V6.1h6.53a8.41,8.41,0,0,1,3.48.67,5.17,5.17,0,0,1,2.27,1.9,5.23,5.23,0,0,1,.8,2.91,4.91,4.91,0,0,1-3.1,4.76L181,21.18Zm-.88-11.56a3.67,3.67,0,0,0-2.39-.68H171.1V14.2h2.84a3.62,3.62,0,0,0,2.39-.69,2.39,2.39,0,0,0,.82-1.94A2.39,2.39,0,0,0,176.34,9.62Z"></path><path class="cls-1" d="M195.19.74a5.39,5.39,0,0,1,2,2A5.71,5.71,0,0,1,198,5.67a5.69,5.69,0,0,1-.76,2.9,5.57,5.57,0,0,1-2.07,2.08,5.86,5.86,0,0,1-5.78,0,5.54,5.54,0,0,1-2.05-2.07,5.69,5.69,0,0,1-.75-2.88,5.69,5.69,0,0,1,.75-2.88A5.56,5.56,0,0,1,189.38.76a6,6,0,0,1,5.81,0Zm-.58,9A4.51,4.51,0,0,0,196.27,8a4.74,4.74,0,0,0,.6-2.37,4.74,4.74,0,0,0-.59-2.36,4.32,4.32,0,0,0-1.64-1.66,4.87,4.87,0,0,0-4.72,0,4.4,4.4,0,0,0-1.65,1.68,4.73,4.73,0,0,0-.6,2.36,4.73,4.73,0,0,0,.6,2.36,4.42,4.42,0,0,0,1.64,1.68,4.5,4.5,0,0,0,2.34.62A4.57,4.57,0,0,0,194.61,9.74ZM195,6a2,2,0,0,1-.88.77l1.37,2.1h-1.68L192.59,7h-1.12V8.84H189.8V2.57h2.73a3,3,0,0,1,2,.61,2,2,0,0,1,.73,1.62A2.21,2.21,0,0,1,195,6Zm-2.54-.2a1.37,1.37,0,0,0,.88-.25.86.86,0,0,0,.32-.72.88.88,0,0,0-.32-.73,1.34,1.34,0,0,0-.88-.26h-1v2Z"></path>
                <rect class="cls-2" y="0.22" width="20.16" height="38.84" rx="10.08" ry="10.08"></rect>
                <path class="cls-3" d="M40.07,27.72h2.45a3.5,3.5,0,0,1,1.59.35,2.57,2.57,0,0,1,1.08,1,3,3,0,0,1,0,2.94,2.57,2.57,0,0,1-1.08,1,3.5,3.5,0,0,1-1.59.35H40.07Zm2.4,4.72a2.38,2.38,0,0,0,1.08-.24,1.69,1.69,0,0,0,.72-.67,2.16,2.16,0,0,0,0-2,1.7,1.7,0,0,0-.72-.67,2.38,2.38,0,0,0-1.08-.24H41.11v3.84Z"></path><path class="cls-3" d="M50.58,31.51H47.23a1.16,1.16,0,0,0,.46.75,1.51,1.51,0,0,0,.92.28,1.56,1.56,0,0,0,1.16-.46l.54.62a1.8,1.8,0,0,1-.73.52,2.66,2.66,0,0,1-1,.18,2.63,2.63,0,0,1-1.24-.28,2,2,0,0,1-.83-.78,2.21,2.21,0,0,1-.29-1.13,2.23,2.23,0,0,1,.28-1.12,2,2,0,0,1,.79-.78A2.3,2.3,0,0,1,48.44,29a2.24,2.24,0,0,1,1.12.28,2,2,0,0,1,.77.78,2.36,2.36,0,0,1,.28,1.16C50.6,31.28,50.59,31.38,50.58,31.51Zm-3-1.42a1.19,1.19,0,0,0-.4.76h2.42a1.18,1.18,0,0,0-.39-.75,1.3,1.3,0,0,0-1.63,0Z"></path><path class="cls-3" d="M51.86,33.24a2.56,2.56,0,0,1-.79-.34l.38-.76a2.47,2.47,0,0,0,.69.31,2.88,2.88,0,0,0,.8.12q.9,0,.9-.47a.31.31,0,0,0-.23-.31,3.91,3.91,0,0,0-.73-.17,6,6,0,0,1-.86-.18,1.32,1.32,0,0,1-.58-.36,1,1,0,0,1-.24-.72,1.14,1.14,0,0,1,.51-1A2.31,2.31,0,0,1,53.07,29a4,4,0,0,1,.88.1,2.49,2.49,0,0,1,.72.27l-.38.76a2.37,2.37,0,0,0-1.22-.32,1.36,1.36,0,0,0-.67.13.39.39,0,0,0-.23.35.35.35,0,0,0,.24.34,3.9,3.9,0,0,0,.76.19A5.77,5.77,0,0,1,54,31a1.31,1.31,0,0,1,.56.35,1,1,0,0,1,.24.7,1.11,1.11,0,0,1-.52,1,2.45,2.45,0,0,1-1.42.36A3.82,3.82,0,0,1,51.86,33.24Z"></path><path class="cls-3" d="M55.72,28.18a.59.59,0,0,1,0-.86.64.64,0,0,1,.46-.17.67.67,0,0,1,.46.16.53.53,0,0,1,.18.41.6.6,0,0,1-.18.44.62.62,0,0,1-.46.18A.64.64,0,0,1,55.72,28.18Zm0,.88h1v4.27h-1Z"></path><path class="cls-3" d="M62.23,29.05v3.62a2,2,0,0,1-2.3,2.26,4.3,4.3,0,0,1-1.17-.16,2.5,2.5,0,0,1-.91-.45l.45-.75a2.16,2.16,0,0,0,.71.37,2.79,2.79,0,0,0,.87.14,1.43,1.43,0,0,0,1-.32,1.31,1.31,0,0,0,.33-1v-.22a1.66,1.66,0,0,1-.62.42,2.21,2.21,0,0,1-.81.14,2.32,2.32,0,0,1-1.1-.26,2,2,0,0,1-.78-.73,2.05,2.05,0,0,1-.28-1.08A2,2,0,0,1,57.92,30a1.93,1.93,0,0,1,.78-.72,2.34,2.34,0,0,1,1.1-.26,2.25,2.25,0,0,1,.84.15,1.56,1.56,0,0,1,.64.46v-.57Zm-1.35,2.89a1.15,1.15,0,0,0,.36-.88,1.13,1.13,0,0,0-.36-.87,1.32,1.32,0,0,0-.93-.34,1.34,1.34,0,0,0-.94.34,1.14,1.14,0,0,0-.36.87,1.16,1.16,0,0,0,.36.88,1.32,1.32,0,0,0,.94.34A1.31,1.31,0,0,0,60.88,31.95Z"></path><path class="cls-3" d="M67.26,29.48a1.87,1.87,0,0,1,.49,1.4v2.45h-1V31a1.2,1.2,0,0,0-.26-.84,1,1,0,0,0-.75-.28,1.16,1.16,0,0,0-.87.33,1.33,1.33,0,0,0-.32,1v2.16h-1V29.05h1v.55a1.56,1.56,0,0,1,.62-.45A2.24,2.24,0,0,1,66,29,1.79,1.79,0,0,1,67.26,29.48Z"></path><path class="cls-3" d="M68.87,33.19a.67.67,0,1,1,.46.19A.64.64,0,0,1,68.87,33.19Z"></path><path class="cls-3" d="M74.28,28.83v.26h1.18v.8H74.32v3.44h-1V29.88h-.7v-.8h.7v-.27a1.46,1.46,0,0,1,.4-1.08,1.83,1.83,0,0,1,2-.16l-.28.75a1,1,0,0,0-.55-.18Q74.28,28.14,74.28,28.83Zm2.54-.65a.59.59,0,0,1,0-.86.64.64,0,0,1,.46-.17.66.66,0,0,1,.46.16.53.53,0,0,1,.18.41.6.6,0,0,1-.18.44.62.62,0,0,1-.46.18A.64.64,0,0,1,76.82,28.18Zm0,.88h1v4.27h-1Z"></path><path class="cls-3" d="M79.08,27.39h1v5.94h-1Z"></path><path class="cls-3" d="M84.17,33.09a1.18,1.18,0,0,1-.43.22,1.9,1.9,0,0,1-.53.07A1.51,1.51,0,0,1,82.12,33a1.42,1.42,0,0,1-.38-1.07V29.88H81v-.8h.7v-1h1v1h1.14v.8H82.74v2a.67.67,0,0,0,.15.48.57.57,0,0,0,.44.16.88.88,0,0,0,.56-.18Z"></path><path class="cls-3" d="M88.85,31.51H85.5a1.16,1.16,0,0,0,.46.75,1.51,1.51,0,0,0,.92.28A1.56,1.56,0,0,0,88,32.07l.54.62a1.8,1.8,0,0,1-.73.52,2.66,2.66,0,0,1-1,.18,2.63,2.63,0,0,1-1.24-.28,2,2,0,0,1-.83-.78,2.21,2.21,0,0,1-.29-1.13,2.23,2.23,0,0,1,.28-1.12,2,2,0,0,1,.79-.78A2.3,2.3,0,0,1,86.71,29a2.24,2.24,0,0,1,1.12.28,2,2,0,0,1,.77.78,2.36,2.36,0,0,1,.28,1.16C88.87,31.28,88.86,31.38,88.85,31.51Zm-3-1.42a1.19,1.19,0,0,0-.4.76h2.42a1.18,1.18,0,0,0-.39-.75,1.3,1.3,0,0,0-1.63,0Z"></path><path class="cls-3" d="M92.3,29v1l-.23,0a1.2,1.2,0,0,0-.91.34,1.35,1.35,0,0,0-.33,1v2.07h-1V29.05h1v.62A1.66,1.66,0,0,1,92.3,29Z"></path><path class="cls-3" d="M93.47,33.24a2.56,2.56,0,0,1-.79-.34l.38-.76a2.47,2.47,0,0,0,.69.31,2.88,2.88,0,0,0,.8.12q.9,0,.9-.47a.31.31,0,0,0-.23-.31,3.91,3.91,0,0,0-.73-.17,6,6,0,0,1-.86-.18,1.32,1.32,0,0,1-.58-.36,1,1,0,0,1-.24-.72,1.14,1.14,0,0,1,.51-1A2.31,2.31,0,0,1,94.68,29a4,4,0,0,1,.88.1,2.49,2.49,0,0,1,.72.27l-.38.76a2.37,2.37,0,0,0-1.22-.32,1.36,1.36,0,0,0-.67.13.39.39,0,0,0-.23.35.35.35,0,0,0,.24.34,3.9,3.9,0,0,0,.76.19,5.77,5.77,0,0,1,.84.18,1.31,1.31,0,0,1,.56.35,1,1,0,0,1,.24.7,1.11,1.11,0,0,1-.52,1,2.45,2.45,0,0,1-1.42.36A3.82,3.82,0,0,1,93.47,33.24Z"></path><path class="cls-3" d="M97.14,33.19a.67.67,0,1,1,.46.19A.64.64,0,0,1,97.14,33.19Z"></path><path class="cls-3" d="M102.55,28.83v.26h1.18v.8h-1.14v3.44h-1V29.88h-.7v-.8h.7v-.27a1.46,1.46,0,0,1,.4-1.08,1.83,1.83,0,0,1,2-.16l-.28.75a1,1,0,0,0-.55-.18Q102.55,28.14,102.55,28.83Z"></path><path class="cls-3" d="M108.53,29.05v4.27h-1v-.54a1.59,1.59,0,0,1-.6.44,1.92,1.92,0,0,1-.78.16,1.86,1.86,0,0,1-1.35-.48,1.88,1.88,0,0,1-.49-1.41V29.05h1v2.3a1.24,1.24,0,0,0,.26.86,1,1,0,0,0,.74.28,1.12,1.12,0,0,0,.85-.33,1.33,1.33,0,0,0,.32-1V29.05Z"></path><path class="cls-3" d="M112.41,33.09a1.18,1.18,0,0,1-.43.22,1.9,1.9,0,0,1-.53.07,1.51,1.51,0,0,1-1.09-.37,1.42,1.42,0,0,1-.38-1.07V29.88h-.7v-.8h.7v-1h1v1h1.14v.8H111v2a.67.67,0,0,0,.15.48.57.57,0,0,0,.44.16.88.88,0,0,0,.56-.18Z"></path><path class="cls-3" d="M117.37,29.05v4.27h-1v-.54a1.59,1.59,0,0,1-.6.44,1.92,1.92,0,0,1-.78.16,1.86,1.86,0,0,1-1.35-.48,1.88,1.88,0,0,1-.49-1.41V29.05h1v2.3a1.24,1.24,0,0,0,.26.86,1,1,0,0,0,.74.28,1.12,1.12,0,0,0,.85-.33,1.33,1.33,0,0,0,.32-1V29.05Z"></path><path class="cls-3" d="M121.15,29v1l-.23,0a1.2,1.2,0,0,0-.91.34,1.35,1.35,0,0,0-.33,1v2.07h-1V29.05h1v.62A1.66,1.66,0,0,1,121.15,29Z"></path><path class="cls-3" d="M126,31.51h-3.35a1.16,1.16,0,0,0,.46.75,1.51,1.51,0,0,0,.92.28,1.56,1.56,0,0,0,1.16-.46l.54.62a1.8,1.8,0,0,1-.73.52,2.66,2.66,0,0,1-1,.18,2.63,2.63,0,0,1-1.24-.28,2,2,0,0,1-.83-.78,2.21,2.21,0,0,1-.29-1.13,2.23,2.23,0,0,1,.28-1.12,2,2,0,0,1,.79-.78,2.3,2.3,0,0,1,1.14-.28,2.24,2.24,0,0,1,1.12.28,2,2,0,0,1,.77.78,2.36,2.36,0,0,1,.28,1.16C126,31.28,126,31.38,126,31.51Zm-3-1.42a1.19,1.19,0,0,0-.4.76H125a1.18,1.18,0,0,0-.39-.75,1.3,1.3,0,0,0-1.63,0Z"></path><path class="cls-3" d="M126.79,33.19a.67.67,0,1,1,.46.19A.64.64,0,0,1,126.79,33.19Z"></path>
            </g>
        </g>
    </svg>