<svg width="128" height="61" viewBox="0 0 128 61" fill="none" xmlns="http://www.w3.org/2000/svg">
              <path d="M0 60.5969V46.2698H2.68841V60.5969H0Z" fill="#191919"></path>
              <path d="M9.06553 51.8285V60.6181H6.36499V45.8879L15.3971 55.0382V46.2698H18.0855V61L9.06553 51.8285Z" fill="#191919"></path>
              <path d="M26.4931 48.2763V60.5969H23.8047V48.2763H20.2524V46.2698H30.0453V48.2763H26.4931Z" fill="#191919"></path>
              <path d="M31.8457 60.5969V46.2698H39.7958V48.2763H34.5341V52.3953H39.3381V54.4017H34.5341V58.5935H40.2262V60.5969H31.8457Z" fill="#191919"></path>
              <path d="M50.2737 60.5969L45.4243 54.0532V60.5969H42.7358V46.2698H46.4729C49.6372 46.2698 52.1226 47.5458 52.1226 50.4282C52.1226 52.5226 50.2525 54.035 48.6825 54.2744L53.4652 60.5969H50.2737ZM46.4245 48.2763H45.4212V52.7378H46.2184C48.7249 52.7378 49.3402 51.5496 49.3402 50.4949C49.3402 49.2613 48.4733 48.2763 46.4245 48.2763Z" fill="#191919"></path>
              <path d="M58.1933 51.8285V60.6181H55.5049V45.8879L64.5249 55.0382V46.2698H67.2133V61L58.1933 51.8285Z" fill="#191919"></path>
              <path d="M78.9066 60.5969L77.6306 57.2993H73.4843L72.187 60.5969H69.4592L75.521 45.6151L81.7405 60.5969H78.9066ZM75.4453 51.7406L74.0329 55.5686H76.9486L75.4453 51.7406Z" fill="#191919"></path>
              <path d="M87.5175 48.2763V60.5969H84.8321V48.2763H81.2769V46.2698H91.0727V48.2763H87.5175Z" fill="#191919"></path>
              <path d="M93.2124 60.5969V46.2698H95.9008V60.5969H93.2124Z" fill="#191919"></path>
              <path d="M105.742 60.8727C101.344 60.8727 99.0227 57.6811 99.0227 53.4712C99.0227 49.2613 101.344 46.0879 105.742 46.0879C110.14 46.0879 112.483 49.2613 112.483 53.4712C112.483 57.6811 110.092 60.8727 105.742 60.8727ZM105.742 48.0944C102.893 48.0944 101.823 50.5555 101.823 53.4712C101.823 56.1505 102.984 58.7753 105.742 58.7753C108.5 58.7753 109.682 56.1505 109.682 53.4712C109.682 50.5555 108.612 48.0944 105.742 48.0944Z" fill="#191919"></path>
              <path d="M118.248 51.8285V60.6181H115.559V45.8879L124.57 55.0382V46.2698H127.259V61L118.248 51.8285Z" fill="#191919"></path>
              <path d="M63.649 0C60.2681 0 56.9631 1.00256 54.1519 2.88091C51.3408 4.75926 49.1497 7.42902 47.8559 10.5526C46.5621 13.6762 46.2236 17.1133 46.8832 20.4292C47.5427 23.7452 49.1708 26.7911 51.5615 29.1818C53.9522 31.5725 56.9981 33.2006 60.3141 33.8602C63.63 34.5197 67.0671 34.1812 70.1907 32.8874C73.3143 31.5936 75.9841 29.4025 77.8624 26.5914C79.7408 23.7803 80.7433 20.4752 80.7433 17.0943C80.7393 12.5618 78.937 8.21617 75.7321 5.01124C72.5271 1.8063 68.1815 0.0040128 63.649 0V0ZM78.5004 16.8943C76.5819 16.5578 74.6633 16.3426 72.7417 16.182C72.5993 10.8173 71.196 6.18002 69.0622 3.26125C71.8106 4.34064 74.1757 6.21339 75.8565 8.64113C77.5372 11.0689 78.4576 13.9418 78.5004 16.8943ZM64.9038 15.8365C64.8796 13.5936 64.8098 11.3477 64.6492 9.10484C64.4886 6.86197 64.2309 4.54636 63.8339 2.25802C66.9588 2.48534 70.1988 7.91066 70.4776 16.0274C68.6146 15.9183 66.7516 15.8547 64.8886 15.8365H64.9038ZM63.449 2.25802C63.0428 4.54636 62.8064 6.82257 62.6336 9.09272C62.4609 11.3629 62.4033 13.5815 62.3791 15.8244C60.514 15.8466 58.6521 15.9112 56.7931 16.0183C57.0568 7.91369 60.315 2.48534 63.4338 2.25802H63.449ZM62.376 18.3491C62.4003 20.592 62.47 22.8348 62.6306 25.0807C62.7913 27.3266 63.0337 29.6453 63.4308 31.9276C60.3089 31.7002 57.0659 26.2719 56.7931 18.1551C58.6541 18.2642 60.515 18.3289 62.376 18.3491ZM63.8369 31.9276C64.234 29.6453 64.4643 27.363 64.6401 25.0807C64.8159 22.7985 64.8705 20.592 64.8917 18.3491C66.7527 18.3309 68.6146 18.2673 70.4776 18.1582C70.2109 26.2719 66.9588 31.7002 63.8369 31.9276ZM58.2206 3.26125C56.099 6.18002 54.6836 10.8173 54.5411 16.185C52.6226 16.3457 50.701 16.5609 48.7824 16.8943C48.8257 13.9419 49.7462 11.0691 51.4269 8.64148C53.1076 6.21381 55.4725 4.34098 58.2206 3.26125ZM48.7976 17.2913C50.7161 17.6247 52.6377 17.8399 54.5563 18.0005C54.6987 23.3683 56.102 28.0025 58.2358 30.9243C55.4874 29.8449 53.1223 27.9722 51.4416 25.5445C49.7608 23.1167 48.8404 20.2438 48.7976 17.2913ZM69.0622 30.9304C71.1838 28.0116 72.5993 23.3743 72.7417 18.0096C74.6633 17.849 76.5819 17.6338 78.5004 17.2974C78.4534 20.249 77.5294 23.1199 75.846 25.5448C74.1626 27.9698 71.7959 29.8392 69.047 30.9152L69.0622 30.9304Z" fill="#000008"></path>
</svg>