<svg xmlns="http://www.w3.org/2000/svg" width="116" height="68" fill="none"><path d="M102.111 28.13c.115-.047.244-.036.368-.039.328.005.658-.004.986.004.079.006.19.015.224.104.035.112.027.234.033.351v9.743c-.002.183.011.368-.026.549-.021.104-.14.125-.227.124-.35.006-.701-.002-1.052.003-.121-.006-.261.014-.359-.071-.067-.085-.057-.196-.059-.297V28.425c.002-.103-.003-.246.112-.295zm-22.408-.038c.169-.057.352-.025.529-.032.31.009.623-.019.932.014.137.017.16.175.157.288.002 1.83 0 3.66.001 5.49a9.96 9.96 0 00.131 1.726c.083.435.24.869.532 1.208.292.341.715.544 1.148.642.384.095.782.114 1.177.129.65-.016 1.3-.057 1.94-.17.025-.128.009-.26.013-.389l-.001-8.571c.004-.098-.007-.204.046-.293.071-.082.189-.07.289-.075h1.051c.097.003.215-.003.289.076.057.085.043.194.049.291-.002 3.002 0 6.002 0 9.004-.002.373-.08.767-.326 1.06-.258.314-.661.472-1.057.52-.596.075-1.197.114-1.797.134-.761.023-1.53.014-2.278-.15-.657-.138-1.306-.42-1.78-.907-.432-.422-.7-.981-.863-1.555-.224-.811-.277-1.656-.286-2.495v-5.61c.005-.115-.016-.271.104-.335zm30.776 1.361a2.43 2.43 0 00-1.297.668c-.441.422-.714.987-.885 1.566a6.22 6.22 0 00-.237 1.61c-.015.68.027 1.364.16 2.034.11.522.305 1.038.645 1.457a2.31 2.31 0 001.402.832c.674.114 1.409.075 2.013-.273.694-.4 1.124-1.133 1.322-1.89.238-.925.265-1.893.183-2.84-.055-.612-.156-1.233-.434-1.788-.276-.576-.773-1.062-1.383-1.271a3.263 3.263 0 00-1.489-.105zm-.183-1.537c.755-.089 1.534-.044 2.262.183.609.19 1.171.534 1.607 1 .547.58.907 1.316 1.122 2.078.268.968.314 1.983.266 2.983-.059 1.023-.257 2.063-.762 2.968-.371.671-.929 1.246-1.616 1.597-.741.383-1.589.51-2.416.489-.929-.01-1.885-.247-2.63-.82-.645-.486-1.096-1.193-1.364-1.946-.344-.968-.436-2.005-.428-3.026.012-1.083.198-2.185.702-3.154.403-.808 1.05-1.504 1.86-1.915.435-.225.911-.37 1.397-.437zm-35.9-2.533c.116-.044.25-.098.363-.008.037.108.042.224.046.338 0 .8-.003 1.6 0 2.4.738.021 1.477 0 2.215.01.106-.01.234.05.235.17.035.35.014.705.013 1.056.012.111-.05.251-.181.24-.76.019-1.521-.012-2.28.015-.006 2.218-.001 4.436-.002 6.655-.004.35.045.728.276 1.008.253.28.652.341 1.01.349.582-.012 1.157-.11 1.735-.164l.081.067c.08.252.105.519.163.776.03.176.085.358.043.536a.492.492 0 01-.225.119c-.68.213-1.399.252-2.106.264-.696-.006-1.464-.104-1.998-.592-.544-.53-.68-1.33-.7-2.056-.01-2.323.006-4.646-.008-6.968-.5-.013-1 .004-1.5-.007-.13.013-.22-.117-.213-.234-.008-.25-.01-.499.001-.747.012-.149.137-.265.279-.294.51-.113 1.025-.21 1.534-.325.11-.655.209-1.312.316-1.967.022-.105.04-.23.136-.296.226-.171.51-.235.766-.345zm-9.886-1.101a9.442 9.442 0 011.697-.017c1.027.087 2.057.27 3.013.668.137.061.287.106.406.2.105.11.048.268.002.39-.15.377-.277.764-.436 1.137-.032.133-.181.09-.27.049a9.652 9.652 0 00-3.646-.751c-.514.014-1.045.09-1.497.352-.413.24-.756.63-.874 1.1-.129.513-.073 1.098.249 1.534.332.452.828.747 1.322.994 1.16.556 2.379.982 3.532 1.553.837.423 1.623 1.024 2.073 1.864.431.766.477 1.687.352 2.54a3.673 3.673 0 01-1.673 2.542c-.85.538-1.87.742-2.864.775-1.638.03-3.305-.196-4.817-.847-.169-.08-.341-.153-.5-.249-.135-.075-.12-.25-.065-.371.153-.349.303-.698.453-1.047.041-.087.076-.19.173-.23.096-.016.183.03.27.067a10.93 10.93 0 002.843.856c.85.134 1.732.152 2.572-.057.588-.154 1.172-.461 1.504-.987.338-.545.384-1.243.202-1.85-.22-.646-.778-1.102-1.353-1.43-1.053-.596-2.226-.93-3.314-1.451-.74-.346-1.47-.755-2.03-1.36a2.986 2.986 0 01-.807-1.762c-.073-.725.013-1.477.322-2.141a3.423 3.423 0 011.52-1.594c.508-.267 1.074-.408 1.641-.477zm38.065-.256c.319-.082.676-.038.946.16.351.238.541.672.507 1.093-.016.58-.526 1.114-1.116 1.11-.633.035-1.205-.544-1.193-1.17a1.207 1.207 0 01.856-1.193zm-8.033 5.495a2.664 2.664 0 00-1.752 1.072c-.57.8-.767 1.8-.796 2.765-.027.935.023 1.907.429 2.766.255.558.709 1.038 1.29 1.258.703.276 1.478.268 2.215.172.476-.07.961-.136 1.41-.316.008-2.47.005-4.938.002-7.408a6.793 6.793 0 00-1.843-.344 3.838 3.838 0 00-.955.035zm2.895-5.687c.089-.035.188-.027.283-.03.35.003.7 0 1.05 0 .094.007.219-.005.274.091.048.105.036.225.044.338v13.382c-.003.185.008.372-.011.558a.362.362 0 01-.242.303 7.025 7.025 0 01-2.164.615c-.863.101-1.735.166-2.601.093-.867-.076-1.73-.389-2.379-.979-.626-.56-1.021-1.337-1.224-2.144-.206-.82-.271-1.67-.259-2.516.01-.769.123-1.537.34-2.276.255-.841.698-1.64 1.345-2.244.541-.503 1.21-.88 1.938-1.034.746-.17 1.519-.122 2.275-.063.42.034.828.146 1.234.253.007-1.356-.001-2.714.004-4.07.008-.095-.001-.22.094-.277z" fill="#131313"/><g filter="url(#filter0_d)"><path d="M32.32 8.054c.576-.106 1.165-.036 1.739.038.69.091 1.377.238 2.037.461.577.156 1.143.36 1.676.627.653.263 1.264.612 1.892.925.158.108.331.193.499.287.376.27.794.473 1.167.746.62.388 1.19.846 1.792 1.26a55.485 55.485 0 012.486 2.027c.328.301.662.595.997.888.13.14.259.28.402.407.4.361.758.766 1.147 1.14a40.408 40.408 0 012.537 2.56c.805.921 1.615 1.843 2.32 2.841.553.69 1.033 1.43 1.508 2.172.906 1.493 1.7 3.073 2.138 4.764.128.585.275 1.17.297 1.772.071.482.036.97.046 1.456a11.695 11.695 0 01-.708 3.524c-.336.975-.812 1.896-1.306 2.803-.304.56-.657 1.091-1 1.63-.21.283-.406.577-.602.87-.477.573-.873 1.207-1.372 1.763-.55.688-1.142 1.342-1.725 2.003-.266.232-.476.515-.727.761-.527.54-1.078 1.056-1.625 1.574a39.586 39.586 0 01-5.396 4.679c-.38.237-.705.55-1.103.764-.525.388-1.11.69-1.659 1.044-.543.307-1.113.562-1.67.842-.43.2-.87.378-1.315.545-.29.14-.606.205-.914.297-.575.175-1.17.282-1.763.39-.143.023-.289.015-.433.032-.68.126-1.368.003-2.044-.077a12.348 12.348 0 01-1.832-.448c-.458-.121-.887-.33-1.336-.48-.22-.128-.465-.209-.697-.316a31.038 31.038 0 01-1.964-1.038c-.352-.253-.746-.441-1.095-.696a15.453 15.453 0 01-1.127-.787c-.618-.421-1.2-.89-1.79-1.348-.304-.273-.641-.508-.937-.788-.506-.407-.968-.862-1.462-1.282-.102-.11-.203-.222-.315-.322-.4-.358-.759-.757-1.14-1.133a39.787 39.787 0 01-3.005-3.077c-.729-.84-1.444-1.695-2.084-2.603-.278-.3-.467-.662-.72-.981a24.652 24.652 0 01-1.853-3.223c-.217-.499-.46-.99-.612-1.514-.111-.26-.16-.542-.276-.801-.036-.096-.045-.198-.067-.296a11.036 11.036 0 01-.29-1.909c-.062-.355-.018-.715-.034-1.072-.012-.163.04-.322.038-.485-.002-.635.14-1.26.266-1.88.104-.501.288-.98.45-1.466.31-.862.718-1.688 1.163-2.49.26-.504.56-.986.873-1.459.198-.353.462-.665.679-1.007.199-.324.474-.595.68-.914.568-.775 1.195-1.505 1.822-2.234.244-.26.451-.553.72-.789.346-.379.684-.765 1.058-1.12.524-.54 1.104-1.026 1.617-1.577.713-.721 1.45-1.42 2.217-2.085.313-.239.584-.523.902-.756.417-.364.872-.684 1.299-1.036.496-.344.975-.712 1.47-1.06.24-.145.473-.299.697-.466.674-.39 1.326-.82 2.025-1.167.302-.188.641-.302.957-.463.24-.104.469-.23.71-.333.252-.114.528-.163.78-.278.106-.05.218-.08.33-.108h.01c.047-.015.084-.022.127-.035.043-.008.087-.021.128-.032l.053-.015.018-.006c.068-.025.133-.043.206-.067.18-.035.354-.096.53-.144.497-.088.989-.2 1.494-.229zM20.804 22.736c-.222.048-.45.15-.577.342-.194.279-.228.628-.234.956-.002 4.784 0 9.568-.001 14.351.003.211-.023.433.07.632.093.114.25.156.395.156.621.005 1.243.001 1.864.002.14-.004.296.005.415-.08.102-.11.085-.27.098-.407.003-2.125 0-4.25.002-6.373.572-.024 1.147-.003 1.72-.01.682.01 1.378-.045 2.047.118.419.1.83.298 1.1.636.355.433.543.968.683 1.497.347 1.382.697 2.763 1.042 4.145.034.136.088.274.199.368.172.107.384.108.581.106.665-.003 1.33.007 1.995-.005.231-.022.277-.308.23-.489-.398-1.56-.806-3.118-1.207-4.677-.154-.617-.374-1.229-.743-1.756-.272-.39-.686-.65-1.108-.862l-.003-.071c.163-.092.338-.162.495-.264.936-.582 1.572-1.576 1.766-2.637a5.383 5.383 0 00-.175-2.674 4.31 4.31 0 00-1.688-2.198c-.871-.577-1.933-.84-2.977-.846h-5.528c-.154 0-.31.006-.46.04zm18.509.006c-.248.061-.497.18-.643.392-.176.25-.258.549-.356.834l-4.89 14.72c-.074.173-.032.44.188.478.707.02 1.416.004 2.123.01.19-.003.41.017.559-.123.156-.167.188-.401.262-.607.305-.95.59-1.907.907-2.853 1.928-.008 3.856-.008 5.785 0 .343 1.047.66 2.102.992 3.152.043.13.098.265.213.351.123.072.27.076.41.08l2.112-.001c.101-.002.219.004.293-.077.107-.11.08-.28.04-.413L42.349 23.83c-.127-.351-.265-.738-.593-.956-.435-.237-.95-.166-1.426-.178-.34.01-.685-.03-1.018.046zm-16.448 2.512c1.123-.007 2.245 0 3.368-.003.373-.005.752.019 1.114.117.596.164 1.108.599 1.337 1.164.249.637.27 1.367.02 2.007-.193.468-.538.895-1.01 1.114-.472.225-1.006.273-1.523.28-1.102-.002-2.204.002-3.307-.002a486.099 486.099 0 010-4.677zm17.41.61l.097.007c.338 1.145.658 2.295.993 3.44.383 1.282.775 2.56 1.152 3.843-1.456.002-2.913.002-4.37 0 .324-1.137.67-2.267 1-3.401.386-1.294.74-2.596 1.127-3.89z" fill="url(#paint0_radial)"/></g><path d="M20.803 22.736c.15-.034.306-.04.46-.04h5.528c1.045.006 2.106.27 2.977.846a4.31 4.31 0 011.688 2.198 5.38 5.38 0 01.175 2.674c-.194 1.061-.83 2.056-1.765 2.637-.157.103-.332.173-.496.264l.003.072c.422.21.837.471 1.109.861.368.528.589 1.14.742 1.756.402 1.56.81 3.118 1.207 4.678.047.18.001.467-.23.489-.665.011-1.33.001-1.994.005-.198.002-.41 0-.582-.107-.11-.093-.165-.232-.199-.368-.345-1.382-.695-2.763-1.042-4.144-.14-.53-.328-1.065-.682-1.497-.27-.339-.682-.537-1.1-.637-.67-.163-1.365-.108-2.048-.118-.573.007-1.147-.013-1.72.01-.001 2.124.001 4.249-.001 6.373-.013.137.004.297-.099.407-.119.086-.275.077-.414.08-.622 0-1.243.003-1.864-.001-.145 0-.302-.043-.396-.157-.093-.198-.066-.42-.07-.631l.001-14.352c.006-.328.04-.677.234-.955.128-.193.355-.295.578-.343zm2.06 2.518c-.01 1.559-.007 3.118 0 4.678 1.102.003 2.204-.001 3.306.001.518-.006 1.051-.055 1.523-.28.472-.219.817-.646 1.01-1.114a2.78 2.78 0 00-.02-2.007c-.228-.565-.74-1-1.336-1.163a4.065 4.065 0 00-1.114-.118c-1.123.003-2.246-.003-3.369.003zm16.448-2.511c.333-.076.678-.037 1.018-.046.477.012.991-.06 1.426.177.328.219.466.605.593.957l4.958 14.855c.04.132.067.302-.04.413-.074.08-.191.074-.293.076h-2.111c-.14-.002-.288-.007-.411-.078-.115-.087-.17-.222-.212-.352-.333-1.05-.65-2.105-.993-3.151a697.288 697.288 0 00-5.785 0c-.317.946-.602 1.902-.907 2.852-.073.206-.105.44-.262.608-.149.14-.369.12-.558.122-.708-.006-1.417.011-2.124-.01-.22-.038-.262-.305-.188-.477l4.89-14.72c.098-.286.18-.584.356-.835.147-.212.396-.33.643-.391zm.962 3.121c-.387 1.293-.742 2.595-1.127 3.89-.331 1.133-.677 2.264-1 3.4 1.457.002 2.913.002 4.37 0-.378-1.282-.77-2.56-1.152-3.842-.335-1.146-.656-2.296-.994-3.44l-.097-.008z" fill="#fff"/><path clip-rule="evenodd" d="M37.591 12.52c.488.033.949.212 1.397.39a8.851 8.851 0 011.548.791c.432.245.847.527 1.22.852.471.347.89.755 1.33 1.137.106.12.227.224.343.334.246.295.54.546.783.844.418.44.78.928 1.178 1.387a45.795 45.795 0 011.575 2.15c.2.311.407.618.615.924.075.139.149.28.238.41.246.376.448.776.682 1.158.543.84 1.037 1.708 1.502 2.592.452.91.91 1.822 1.265 2.775.299.67.528 1.368.753 2.065.412 1.394.715 2.835.706 4.291-.023.5-.03 1.003-.14 1.494-.047.404-.18.792-.276 1.187a9.866 9.866 0 01-1.329 2.702c-.48.72-1.063 1.366-1.657 1.997-.366.39-.766.748-1.158 1.112-.231.186-.452.383-.674.58-.508.365-.965.796-1.487 1.142-.593.444-1.211.85-1.825 1.264-.264.134-.495.319-.75.466-.542.328-1.098.632-1.652.938a33.544 33.544 0 01-5.366 2.672c-.359.113-.688.3-1.056.391-.508.206-1.045.329-1.565.503-.505.136-1.02.225-1.531.336-.39.073-.785.127-1.18.17-.264.055-.534.041-.802.052-.502.023-1.007-.012-1.509-.048-.12-.01-.237-.047-.357-.063-.577-.038-1.107-.279-1.636-.483a10.22 10.22 0 01-1.385-.738c-.344-.193-.646-.45-.976-.663-.152-.15-.332-.265-.496-.4a25.54 25.54 0 01-1.366-1.243c-.23-.276-.508-.51-.735-.788-.259-.28-.51-.567-.742-.868-.41-.468-.78-.967-1.158-1.459-.187-.283-.409-.541-.588-.829-.321-.433-.597-.895-.907-1.337-.059-.11-.116-.221-.185-.325-.247-.372-.451-.768-.679-1.15a32.751 32.751 0 01-1.768-3.107c-.409-.829-.804-1.667-1.126-2.532-.16-.3-.236-.632-.371-.942a20.351 20.351 0 01-.807-2.986c-.069-.448-.16-.895-.17-1.35-.033-.234-.013-.472-.05-.705-.01-.085.006-.169.009-.253a9.2 9.2 0 01.175-1.603c.026-.299.139-.58.202-.873.026-.134.102-.252.135-.384.135-.514.383-.99.619-1.465.191-.384.443-.733.678-1.092a14.52 14.52 0 011.475-1.775c.319-.353.664-.682 1.02-.999.235-.245.515-.442.764-.674.23-.221.51-.384.747-.6.625-.508 1.288-.97 1.95-1.43.254-.16.485-.354.753-.49.36-.235.717-.477 1.095-.687.54-.329 1.113-.602 1.646-.942a33.63 33.63 0 012.24-1.23c.304-.128.584-.302.891-.425.416-.209.852-.373 1.272-.57.476-.177.942-.375 1.416-.554a7.68 7.68 0 00.664-.234c.629-.177 1.247-.39 1.887-.527.285-.09.583-.112.873-.177.216-.034.428-.089.645-.123.229-.04.463-.023.691-.064.096-.018.193-.02.29-.02l.007.002c.042-.002.074 0 .11-.001h.112c.018-.001.028 0 .046-.002h.015c.06-.006.117-.008.18-.012.154.009.308-.005.461-.007.42.03.842.041 1.256.122v0z" stroke="#AE6FAC" stroke-width="1.2" stroke-miterlimit="22.926"/><defs><radialGradient id="paint0_radial" cx="0" cy="0" r="1" gradientUnits="userSpaceOnUse" gradientTransform="matrix(31.47826 -35.56469 35.66338 31.56561 42.122 21.92)"><stop stop-color="#A2198E"/><stop offset=".329" stop-color="#7D1B70"/><stop offset="1" stop-color="#651661"/></radialGradient><filter id="filter0_d" x="0" y="0" width="68" height="68" filterUnits="userSpaceOnUse" color-interpolation-filters="sRGB"><feFlood flood-opacity="0" result="BackgroundImageFix"/><feColorMatrix in="SourceAlpha" values="0 0 0 0 0 0 0 0 0 0 0 0 0 0 0 0 0 0 127 0"/><feOffset dx="1" dy="2"/><feGaussianBlur stdDeviation="5"/><feColorMatrix values="0 0 0 0 1 0 0 0 0 1 0 0 0 0 1 0 0 0 0.1 0"/><feBlend in2="BackgroundImageFix" result="effect1_dropShadow"/><feBlend in="SourceGraphic" in2="effect1_dropShadow" result="shape"/></filter></defs></svg>