<?xml version="1.0" standalone="no"?>
<!DOCTYPE svg PUBLIC "-//W3C//DTD SVG 20010904//EN"
 "http://www.w3.org/TR/2001/REC-SVG-20010904/DTD/svg10.dtd">
<svg version="1.0" xmlns="http://www.w3.org/2000/svg"
 width="700.000000pt" height="700.000000pt" viewBox="0 0 700.000000 700.000000"
 preserveAspectRatio="xMidYMid meet">
<metadata>
Created by potrace 1.14, written by Peter Selinger 2001-2017
</metadata>
<g transform="translate(0.000000,700.000000) scale(0.100000,-0.100000)"
fill="#000000" stroke="none">
<path d="M159 6986 c-56 -20 -96 -53 -126 -104 l-28 -47 0 -3336 0 -3336 30
-49 c19 -30 49 -60 79 -79 l49 -30 3337 0 3337 0 49 30 c30 19 60 49 79 79
l30 49 0 3337 0 3337 -30 49 c-19 30 -49 60 -79 79 l-49 30 -3321 2 c-2697 2
-3328 0 -3357 -11z m2839 -1522 c54 -15 52 45 52 -1371 0 -761 -4 -1369 -10
-1453 -24 -345 -52 -509 -109 -635 -105 -231 -351 -446 -556 -485 -42 -8 -248
-10 -695 -8 l-635 3 -88 28 c-167 52 -297 129 -425 252 -185 177 -293 411
-309 671 l-6 100 28 22 c26 20 39 22 177 22 142 0 150 -1 172 -23 17 -17 24
-39 29 -89 19 -202 141 -395 313 -496 138 -80 108 -77 749 -77 l570 0 67 33
c130 64 230 192 263 334 31 138 35 332 35 1728 0 1477 -2 1413 45 1438 21 12
293 16 333 6z m2881 -19 c401 -65 688 -320 816 -726 44 -139 78 -330 68 -382
-7 -38 -57 -85 -97 -93 -47 -8 -120 25 -145 66 -10 18 -24 68 -31 112 -54 374
-227 627 -494 724 -146 53 -184 55 -702 52 -463 -4 -482 -5 -559 -27 -356
-101 -613 -363 -712 -726 l-28 -100 0 -860 0 -860 28 -100 c113 -412 443 -697
862 -745 115 -13 783 -13 895 0 387 44 621 272 725 704 19 78 31 107 53 129
82 82 222 33 222 -77 0 -61 -40 -213 -89 -336 -115 -292 -323 -511 -584 -614
-187 -74 -364 -91 -887 -83 -388 5 -461 13 -624 68 -192 64 -349 162 -497 309
-150 150 -253 318 -317 520 -58 183 -57 172 -57 1090 0 934 -2 900 66 1104
146 439 537 774 993 850 124 21 968 21 1095 1z"/>
</g>
</svg>
